<svg width="150" height="150" viewBox="0 0 150 150" fill="none" xmlns="http://www.w3.org/2000/svg">
<circle cx="75" cy="75" r="75" fill="#F7FFFE"/>
<path d="M38 74.5C38 79.4246 38.97 84.3009 40.8545 88.8506C42.7391 93.4003 45.5013 97.5343 48.9835 101.017C52.4657 104.499 56.5997 107.261 61.1494 109.145C65.6991 111.03 70.5754 112 75.5 112C80.4246 112 85.3009 111.03 89.8506 109.145C94.4003 107.261 98.5343 104.499 102.017 101.017C105.499 97.5343 108.261 93.4003 110.145 88.8506C112.03 84.3009 113 79.4246 113 74.5H75.5L38 74.5Z" fill="#E6FFF9"/>
<path d="M113 75.5C113 65.5544 109.049 56.0161 102.017 48.9835C94.9839 41.9509 85.4456 38 75.5 38C65.5544 38 56.0161 41.9509 48.9835 48.9835C41.9509 56.0161 38 65.5544 38 75.5L75.5 75.5H113Z" fill="#DDEAFF"/>
<circle cx="113" cy="32" r="5" fill="#DEFFFF"/>
</svg>
