<svg width="150" height="150" viewBox="0 0 150 150" fill="none" xmlns="http://www.w3.org/2000/svg">
<rect width="150" height="150" rx="20" fill="white"/>
<path d="M115 75C115 69.7471 113.965 64.5457 111.955 59.6927C109.945 54.8396 106.999 50.4301 103.284 46.7157C99.5699 43.0014 95.1604 40.055 90.3073 38.0448C85.4543 36.0346 80.2529 35 75 35L75 75H115Z" fill="#F19C95"/>
<path d="M75 115C80.2529 115 85.4543 113.965 90.3073 111.955C95.1604 109.945 99.5699 106.999 103.284 103.284C106.999 99.5699 109.945 95.1604 111.955 90.3073C113.965 85.4543 115 80.2529 115 75L75 75L75 115Z" fill="#F6DA8C"/>
<path d="M75 35C69.7471 35 64.5457 36.0346 59.6927 38.0448C54.8396 40.055 50.4301 43.0014 46.7157 46.7157C43.0014 50.4301 40.055 54.8396 38.0448 59.6927C36.0346 64.5457 35 69.7471 35 75C35 80.2529 36.0346 85.4543 38.0448 90.3073C40.055 95.1604 43.0014 99.5699 46.7157 103.284C50.4301 106.999 54.8396 109.945 59.6927 111.955C64.5457 113.965 69.7471 115 75 115L75 75L75 35Z" fill="#89E0B6"/>
<circle cx="75.2667" cy="74.7333" r="18" fill="#B3CDF8" stroke="white" stroke-width="4"/>
</svg>
