<svg width="150" height="150" viewBox="0 0 150 150" fill="none" xmlns="http://www.w3.org/2000/svg">
<path d="M0 20C0 8.9543 8.95431 0 20 0H75H130C141.046 0 150 8.95431 150 20V130C150 141.046 141.046 150 130 150H20C8.9543 150 0 141.046 0 130V20Z" fill="#FFF8F8"/>
<path d="M0 62H150V130C150 141.046 141.046 150 130 150H20C8.9543 150 0 141.046 0 130V62Z" fill="#D9F2FD"/>
<path d="M0 94H150V130C150 141.046 141.046 150 130 150H20C8.9543 150 0 141.046 0 130V94Z" fill="#B2E8FF"/>
<circle cx="120.5" cy="24.5" r="12.5" fill="#B4C1F0"/>
</svg>
