<svg width="150" height="150" viewBox="0 0 150 150" fill="none" xmlns="http://www.w3.org/2000/svg">
<rect width="150" height="150" rx="20" fill="#F2FFF4"/>
<path d="M0 62H150V118H0V62Z" fill="#EAFFED"/>
<path d="M0 94H150V130C150 141.046 141.046 150 130 150H20C8.9543 150 0 141.046 0 130V94Z" fill="#D7FDDD"/>
<rect x="50.3141" y="55" width="8.06006" height="40.3003" rx="4.03003" fill="#C4E7C1"/>
<rect x="35" y="79.1802" width="8.06006" height="40.3003" rx="4.03003" transform="rotate(-90 35 79.1802)" fill="#C4E7C1"/>
<circle cx="96.7622" cy="89.0004" r="4.03003" transform="rotate(-45 96.7622 89.0004)" fill="#C0FBBF"/>
<circle cx="109.301" cy="76.4619" r="4.03003" transform="rotate(-45 109.301 76.4619)" fill="#E8FFCC"/>
<circle cx="96.7622" cy="63.9233" r="4.03003" transform="rotate(-45 96.7622 63.9233)" fill="#C0FBBF"/>
<circle cx="84.2236" cy="76.4619" r="4.03003" transform="rotate(-45 84.2236 76.4619)" fill="#E8FFCC"/>
</svg>
