<svg width="150" height="150" viewBox="0 0 150 150" fill="none" xmlns="http://www.w3.org/2000/svg">
<rect width="150" height="150" rx="20" fill="#FBFFFD"/>
<rect width="68.8172" height="41.2903" rx="8" transform="matrix(-1 0 0 1 103.817 61.6452)" fill="#EDF1F8"/>
<path d="M103.817 69.6452C103.817 65.2269 100.235 61.6452 95.8172 61.6452H43C38.5817 61.6452 35 65.2269 35 69.6452V82.2903H103.817V69.6452Z" fill="#E3E2FF"/>
<path d="M46.1828 92.6129H35V108.957V108.957C41.1761 108.957 46.1828 103.95 46.1828 97.7742V92.6129Z" fill="#EDF1F8"/>
<rect x="46.1828" y="41" width="68.8172" height="41.2903" rx="8" fill="#EDF8F3"/>
<path d="M46.1828 49C46.1828 44.5817 49.7645 41 54.1828 41H107C111.418 41 115 44.5817 115 49V61.6452H46.1828V49Z" fill="#F5FFFB"/>
<path d="M103.817 71.9677H115V88.3118V88.3118C108.824 88.3118 103.817 83.3051 103.817 77.129V71.9677Z" fill="#EDF8F3"/>
</svg>
