<svg width="150" height="150" viewBox="0 0 150 150" fill="none" xmlns="http://www.w3.org/2000/svg">
<rect width="150" height="150" rx="20" fill="white"/>
<path d="M40 103.578C40 96.3587 45.8527 90.506 53.0723 90.506H71.2048V101.048C71.2048 109.665 64.2194 116.651 55.6024 116.651H53.0723C45.8527 116.651 40 110.798 40 103.578V103.578Z" fill="#DEFEEF"/>
<rect x="59.3976" y="39.9036" width="11.8072" height="50.6024" fill="#F3F7FF"/>
<path d="M78.7952 103.578C78.7952 96.3587 84.6478 90.506 91.8675 90.506H110V101.048C110 109.665 103.015 116.651 94.3976 116.651H91.8675C84.6478 116.651 78.7952 110.798 78.7952 103.578V103.578Z" fill="#DEFEEF"/>
<rect x="98.1928" y="39.9036" width="11.8072" height="50.6024" fill="#EDF4FF"/>
<path d="M59.3976 45.8072V38C59.3976 35.7909 61.1884 34 63.3976 34H106C108.209 34 110 35.7909 110 38V45.8072H59.3976Z" fill="#EDF4FF"/>
<path d="M59.3976 45.8072V38C59.3976 35.7909 61.1884 34 63.3976 34H84.6988V45.8072H59.3976Z" fill="#F3F7FF"/>
</svg>
