<svg width="150" height="150" viewBox="0 0 150 150" fill="none" xmlns="http://www.w3.org/2000/svg">
<rect width="150" height="150" rx="20" fill="#FBFFFC"/>
<circle cx="106.132" cy="45.3208" r="11.3208" fill="#FEFFCD"/>
<path d="M63 72.6364C63 69.5235 65.5235 67 68.6364 67H81.3636C105.463 67 125 86.5367 125 110.636V110.636C125 113.046 123.046 115 120.636 115H73C67.4772 115 63 110.523 63 105V72.6364Z" fill="#E0F6FF"/>
<path d="M25 112.091C25 96.0244 38.0244 83 54.0909 83H105C109.418 83 113 86.5817 113 91V105C113 110.523 108.523 115 103 115H27.9091C26.3024 115 25 113.698 25 112.091V112.091Z" fill="#E0F6FF"/>
</svg>
